<?xml version="1.0" standalone="no"?>
<!DOCTYPE svg PUBLIC "-//W3C//DTD SVG 20010904//EN"
 "http://www.w3.org/TR/2001/REC-SVG-20010904/DTD/svg10.dtd">
<svg version="1.0" xmlns="http://www.w3.org/2000/svg"
 width="96.000000pt" height="96.000000pt" viewBox="0 0 96.000000 96.000000"
 preserveAspectRatio="xMidYMid meet">
<metadata>
Created by potrace 1.10, written by Peter Selinger 2001-2011
</metadata>
<g transform="translate(0.000000,96.000000) scale(0.100000,-0.100000)"
fill="#000000" stroke="none">
<path d="M16 944 c-19 -18 -19 -20 -6 -45 9 -16 22 -19 85 -19 l74 0 7 -37 c9
-53 20 -109 28 -151 3 -13 7 -31 10 -40 3 -9 7 -33 10 -52 7 -42 14 -76 20
-98 3 -9 7 -33 10 -52 10 -62 14 -77 31 -110 28 -55 59 -61 307 -60 205 1 224
3 250 21 15 11 32 29 38 38 19 37 79 384 69 403 -9 17 -31 18 -344 18 l-333 0
-6 28 c-3 15 -8 41 -11 57 -13 79 -17 91 -32 103 -27 20 -34 14 -27 -25 l7
-36 -24 16 c-15 11 -44 17 -82 17 -54 0 -58 2 -52 20 8 24 -7 26 -29 4z m258
-245 c-21 -24 -34 -16 -34 22 0 29 0 29 25 13 24 -16 25 -18 9 -35z m646 1 c0
-23 -10 -26 -28 -8 -18 18 -15 28 8 28 13 0 20 -7 20 -20z m-50 -34 c0 -12
-13 -79 -36 -181 -2 -11 -7 -38 -10 -59 -8 -67 -3 -66 -245 -66 -244 0 -231
-4 -243 75 -3 22 -8 51 -11 65 -3 14 -7 36 -10 50 -3 14 -7 34 -9 45 -3 11 -8
35 -12 53 l-6 32 291 0 c246 0 291 -2 291 -14z"/>
<path d="M320 188 c-33 -18 -46 -67 -29 -104 27 -55 118 -53 140 3 11 30 4 76
-15 92 -22 18 -70 22 -96 9z m64 -44 c9 -8 16 -19 16 -24 0 -11 -29 -40 -40
-40 -11 0 -40 29 -40 40 0 11 29 40 40 40 5 0 16 -7 24 -16z"/>
<path d="M760 188 c-33 -18 -46 -67 -29 -104 27 -55 118 -53 140 3 11 30 4 76
-15 92 -22 18 -70 22 -96 9z m64 -44 c9 -8 16 -19 16 -24 0 -11 -29 -40 -40
-40 -11 0 -40 29 -40 40 0 11 29 40 40 40 5 0 16 -7 24 -16z"/>
</g>
</svg>
