<?xml version="1.0" standalone="no"?>
<!DOCTYPE svg PUBLIC "-//W3C//DTD SVG 20010904//EN"
 "http://www.w3.org/TR/2001/REC-SVG-20010904/DTD/svg10.dtd">
<svg version="1.0" xmlns="http://www.w3.org/2000/svg"
 width="96.000000pt" height="96.000000pt" viewBox="0 0 96.000000 96.000000"
 preserveAspectRatio="xMidYMid meet">
<metadata>
Created by potrace 1.10, written by Peter Selinger 2001-2011
</metadata>
<g transform="translate(0.000000,96.000000) scale(0.100000,-0.100000)"
fill="#000000" stroke="none">
<path d="M357 870 c-105 -27 -197 -104 -244 -205 -23 -51 -28 -73 -27 -145 0
-72 4 -95 28 -146 35 -77 103 -145 181 -181 51 -23 73 -28 146 -28 78 0 91 3
157 36 l71 35 78 -78 c77 -78 98 -89 121 -66 23 23 12 44 -66 121 l-78 78 35
71 c33 66 36 79 36 157 -1 72 -5 96 -29 147 -55 121 -172 201 -303 209 -37 2
-85 0 -106 -5z m216 -103 c48 -29 97 -79 124 -130 25 -45 25 -189 0 -234 -28
-52 -76 -101 -126 -131 -40 -24 -57 -27 -131 -27 -74 0 -91 3 -131 27 -51 30
-100 81 -125 130 -21 42 -29 142 -15 194 21 78 98 160 178 190 60 23 171 13
226 -19z m124 -503 c-1 -2 -13 -1 -25 3 -22 5 -22 6 -5 25 17 19 17 19 25 -3
5 -12 7 -23 5 -25z"/>
</g>
</svg>
